<?xml version="1.0" standalone="no"?>
<!DOCTYPE svg PUBLIC "-//W3C//DTD SVG 20010904//EN"
 "http://www.w3.org/TR/2001/REC-SVG-20010904/DTD/svg10.dtd">
<svg version="1.0" xmlns="http://www.w3.org/2000/svg"
 width="256.000000pt" height="282.000000pt" viewBox="0 0 256.000000 282.000000"
 preserveAspectRatio="xMidYMid meet">

<g transform="translate(0.000000,282.000000) scale(0.100000,-0.100000)"
fill="#000000" stroke="none">
<path d="M0 2610 c0 -115 3 -210 7 -210 5 0 62 18 128 39 891 293 1135 373
1135 377 0 2 -286 4 -635 4 l-635 0 0 -210z"/>
<path d="M1291 2815 c5 -5 519 -175 968 -321 l293 -96 -178 -79 c-99 -44 -233
-106 -299 -138 -66 -32 -194 -91 -285 -131 -91 -40 -230 -103 -310 -140 -80
-38 -157 -73 -172 -79 l-28 -11 0 -111 c0 -111 0 -111 -22 -104 -69 21 -68 22
-68 -33 l0 -51 -72 33 -72 33 3 51 c2 49 1 52 -31 72 -51 31 -58 27 -58 -31 0
-55 -3 -56 -64 -33 -13 5 -16 -2 -16 -38 0 -25 -3 -47 -6 -51 -3 -3 -21 2 -40
10 -33 16 -34 19 -34 73 l0 57 -39 15 c-22 9 -42 13 -45 10 -3 -3 -6 -25 -6
-49 0 -48 1 -47 -34 -32 -23 11 -25 17 -31 129 l-7 118 -39 15 -39 15 0 -38
c0 -65 -6 -72 -46 -53 l-34 17 0 113 0 114 -35 15 c-19 7 -36 14 -38 14 -3 0
-8 -74 -12 -164 l-7 -164 -32 13 c-29 12 -31 16 -34 73 l-3 60 -79 34 -80 33
0 60 c0 60 -1 61 -33 73 -47 17 -47 17 -47 -38 0 -27 -2 -50 -5 -50 -3 0 -21
7 -40 14 l-35 15 0 -173 0 -173 40 -18 41 -18 -3 -106 c-3 -88 -5 -105 -18
-102 -8 2 -25 6 -37 9 l-23 4 0 -741 0 -741 1280 0 1280 0 0 1410 0 1410 -637
0 c-350 0 -634 -2 -632 -5z m-1001 -1010 c24 -13 30 -22 30 -49 0 -61 -6 -67
-46 -49 -32 16 -34 20 -34 65 0 52 6 56 50 33z m75 -257 c22 -10 25 -17 25
-65 0 -29 -2 -53 -5 -53 -4 0 -19 7 -35 15 -27 14 -30 20 -30 65 0 53 4 57 45
38z m-112 -63 l67 -29 0 -53 c0 -29 -2 -53 -5 -53 -3 0 -39 16 -80 36 -65 31
-75 39 -75 63 0 34 11 73 19 69 4 -2 37 -16 74 -33z m416 -80 c50 -25 51 -26
51 -70 0 -24 -3 -46 -7 -48 -5 -3 -41 11 -80 30 -69 33 -73 37 -73 68 0 72 6
73 109 20z m221 -100 l70 -35 0 -50 c0 -28 -2 -50 -4 -50 -3 0 -39 15 -80 34
l-76 35 0 50 c0 28 5 51 10 51 6 0 42 -16 80 -35z m355 -47 c22 -10 25 -17 25
-65 0 -29 -2 -53 -5 -53 -4 0 -19 7 -35 15 -27 14 -30 20 -30 65 0 53 4 57 45
38z m-913 -149 l68 -32 0 -54 c0 -30 -4 -53 -8 -51 -5 2 -39 17 -75 33 l-66
30 -1 53 c0 28 3 52 7 52 3 0 37 -14 75 -31z m198 -94 c27 -14 30 -20 30 -65
0 -28 -2 -50 -5 -50 -2 0 -20 8 -40 17 -33 16 -35 20 -35 65 0 52 6 56 50 33z
m-85 -72 c33 -16 35 -20 35 -63 0 -26 -3 -49 -6 -53 -3 -3 -21 2 -40 10 -32
16 -34 19 -34 70 0 29 2 53 5 53 2 0 20 -8 40 -17z m598 -47 c61 -27 67 -32
68 -60 1 -33 -1 -69 -5 -74 -2 -1 -35 12 -74 29 l-72 32 0 54 c0 30 4 53 8 51
4 -1 38 -16 75 -32z m-235 -6 l62 -29 0 -55 0 -55 -72 34 -73 33 -3 51 c-4 61
0 62 86 21z m-283 -97 c33 -16 35 -20 35 -63 0 -26 -3 -49 -6 -53 -3 -3 -21 2
-40 10 -32 16 -34 19 -34 70 0 29 2 53 5 53 2 0 20 -8 40 -17z m634 -64 c30
-10 31 -13 31 -64 l0 -54 -32 14 c-30 12 -33 17 -36 64 -2 28 -1 51 1 51 2 0
18 -5 36 -11z m-847 -72 c11 -16 10 -97 -1 -97 -4 0 -22 5 -40 11 -33 11 -35
19 -25 81 6 35 8 36 32 27 15 -6 30 -16 34 -22z m-102 -62 c27 -14 30 -20 30
-65 0 -28 -2 -50 -5 -50 -2 0 -20 8 -40 17 -29 14 -35 22 -35 49 0 32 8 64 17
64 2 0 17 -7 33 -15z m660 -125 c0 -28 -2 -50 -5 -50 -4 0 -19 7 -35 15 -26
14 -30 21 -30 59 0 53 5 59 41 40 26 -13 29 -20 29 -64z m398 -73 l3 -56 -73
33 -73 33 -3 56 -3 57 73 -33 73 -33 3 -57z m-733 51 c22 -10 25 -17 25 -65
l0 -53 -40 20 c-38 19 -40 23 -40 65 0 49 9 54 55 33z m550 -25 c30 -15 35
-21 35 -52 0 -56 -11 -66 -49 -47 -28 15 -31 21 -31 66 0 28 2 50 5 50 2 0 20
-8 40 -17z"/>
<path d="M1646 2283 l-29 -15 24 -14 c30 -17 66 -17 104 0 l30 14 -37 16 c-46
20 -55 20 -92 -1z"/>
</g>
</svg>
